<svg width="141" height="17" viewBox="0 0 141 17" fill="none" xmlns="http://www.w3.org/2000/svg">
<path d="M135.542 12.512C135.083 12.512 134.758 12.368 134.566 12.08C134.374 11.8027 134.277 11.4613 134.277 11.056C134.277 10.7253 134.331 10.384 134.438 10.032C134.544 9.68 134.683 9.34933 134.854 9.04C135.035 8.73066 135.232 8.48 135.445 8.288C135.669 8.096 135.893 8 136.117 8C136.171 8 136.224 8.01066 136.277 8.032C136.341 8.04266 136.4 8.05866 136.454 8.08C136.358 8.16533 136.24 8.32533 136.102 8.56C135.974 8.784 135.851 9.04533 135.734 9.344C135.616 9.632 135.515 9.92 135.43 10.208C135.355 10.496 135.318 10.7413 135.318 10.944C135.318 11.264 135.371 11.4987 135.477 11.648C135.584 11.7867 135.723 11.856 135.893 11.856C136.117 11.856 136.384 11.7387 136.693 11.504C137.003 11.2587 137.307 10.9493 137.605 10.576C137.307 10.3307 137.072 10.0107 136.902 9.616C136.742 9.21066 136.661 8.8 136.661 8.384C136.661 8.032 136.72 7.70133 136.837 7.392C136.965 7.08266 137.147 6.83733 137.382 6.656C137.616 6.464 137.899 6.368 138.23 6.368C138.667 6.368 138.96 6.48533 139.109 6.72C139.259 6.95466 139.333 7.248 139.333 7.6C139.333 8.016 139.232 8.48 139.029 8.992C138.827 9.49333 138.571 9.97866 138.262 10.448C138.454 10.5547 138.656 10.608 138.87 10.608C139.04 10.608 139.232 10.576 139.445 10.512C139.659 10.4373 139.867 10.3147 140.07 10.144C140.283 9.97333 140.453 9.744 140.581 9.456L140.773 9.616C140.56 10.1173 140.256 10.4747 139.861 10.688C139.477 10.8907 139.11 10.992 138.758 10.992C138.619 10.992 138.485 10.9813 138.357 10.96C138.229 10.928 138.107 10.8853 137.99 10.832C137.627 11.312 137.227 11.712 136.79 12.032C136.363 12.352 135.947 12.512 135.542 12.512ZM137.893 10.16C138.16 9.76533 138.379 9.35466 138.549 8.928C138.731 8.49066 138.822 8.08 138.822 7.696C138.822 7.38666 138.774 7.16266 138.678 7.024C138.592 6.87466 138.48 6.8 138.342 6.8C138.128 6.8 137.91 6.95466 137.686 7.264C137.462 7.57333 137.35 7.96266 137.35 8.432C137.35 8.74133 137.392 9.056 137.477 9.376C137.573 9.68533 137.712 9.94666 137.893 10.16Z" fill="white"/>
<path d="M131.73 12.416C131.314 12.416 131.005 12.2827 130.802 12.016C130.599 11.76 130.498 11.4453 130.498 11.072C130.498 10.8267 130.541 10.5173 130.626 10.144C130.722 9.77066 130.845 9.38133 130.994 8.976C131.143 8.56 131.314 8.17066 131.506 7.808C131.709 7.44533 131.922 7.152 132.146 6.928C132.37 6.69333 132.589 6.576 132.802 6.576C132.898 6.576 132.978 6.608 133.042 6.672C133.117 6.72533 133.154 6.81066 133.154 6.928C133.154 7.056 133.069 7.264 132.898 7.552C132.738 7.84 132.546 8.17066 132.322 8.544C132.098 8.91733 131.901 9.312 131.73 9.728C131.57 10.1333 131.49 10.5227 131.49 10.896C131.49 11.28 131.554 11.536 131.682 11.664C131.81 11.792 132.007 11.856 132.274 11.856C132.637 11.856 133.021 11.6747 133.426 11.312C133.842 10.9493 134.279 10.3147 134.738 9.408L134.882 9.568C134.573 10.4853 134.125 11.1893 133.538 11.68C132.962 12.1707 132.359 12.416 131.73 12.416ZM133.65 5.088C133.479 5.088 133.325 5.04533 133.186 4.96C133.058 4.87466 132.994 4.74133 132.994 4.56C132.994 4.336 133.122 4.144 133.378 3.984C133.645 3.81333 133.906 3.728 134.162 3.728C134.322 3.728 134.45 3.76533 134.546 3.84C134.642 3.91466 134.69 4.04266 134.69 4.224C134.69 4.42666 134.578 4.624 134.354 4.816C134.141 4.99733 133.906 5.088 133.65 5.088Z" fill="white"/>
<path d="M123.96 12.48C123.778 12.48 123.592 12.432 123.4 12.336C123.218 12.2507 123.069 12.1067 122.952 11.904C122.824 11.7013 122.76 11.4453 122.76 11.136C122.76 10.784 122.845 10.3893 123.016 9.952C123.186 9.51466 123.416 9.08266 123.704 8.656C123.992 8.21866 124.322 7.81866 124.696 7.456C125.069 7.08266 125.458 6.78933 125.864 6.576C126.269 6.352 126.669 6.24 127.064 6.24C127.288 6.24 127.458 6.28266 127.576 6.368C127.704 6.44266 127.768 6.56533 127.768 6.736C127.768 6.77866 127.762 6.816 127.752 6.848C127.752 6.88 127.746 6.91733 127.736 6.96C127.682 6.87466 127.602 6.816 127.496 6.784C127.4 6.74133 127.277 6.72 127.128 6.72C126.786 6.72 126.45 6.82666 126.12 7.04C125.8 7.24266 125.501 7.51466 125.224 7.856C124.957 8.18666 124.722 8.544 124.52 8.928C124.317 9.312 124.157 9.68533 124.04 10.048C123.933 10.4 123.88 10.6987 123.88 10.944C123.88 11.1787 123.933 11.3653 124.04 11.504C124.146 11.6427 124.285 11.712 124.456 11.712C124.744 11.712 125.09 11.5307 125.496 11.168C125.912 10.8053 126.333 10.2933 126.76 9.632C127.186 8.97066 127.57 8.19733 127.912 7.312C128.146 6.69333 128.386 6.064 128.632 5.424C128.888 4.784 129.144 4.17066 129.4 3.584C129.656 2.98666 129.901 2.45866 130.136 2C130.381 1.53066 130.61 1.16266 130.824 0.895996C131.048 0.618663 131.245 0.479996 131.416 0.479996C131.501 0.479996 131.576 0.517329 131.64 0.591995C131.704 0.655996 131.736 0.741329 131.736 0.847996C131.736 1.01866 131.645 1.312 131.464 1.728C131.293 2.13333 131.064 2.624 130.776 3.2C130.498 3.76533 130.205 4.384 129.896 5.056C129.586 5.728 129.288 6.41066 129 7.104C128.722 7.79733 128.493 8.46933 128.312 9.12C128.141 9.76 128.056 10.3467 128.056 10.88C128.056 11.1787 128.072 11.4027 128.104 11.552C128.136 11.7013 128.242 11.776 128.424 11.776C128.648 11.776 128.909 11.68 129.208 11.488C129.506 11.296 129.805 11.024 130.104 10.672C130.402 10.32 130.664 9.89866 130.888 9.408L131.08 9.552C130.877 10.096 130.6 10.5867 130.248 11.024C129.896 11.4507 129.517 11.7867 129.112 12.032C128.717 12.288 128.338 12.416 127.976 12.416C127.581 12.416 127.304 12.2827 127.144 12.016C126.994 11.76 126.92 11.4933 126.92 11.216C126.92 11.0347 126.946 10.7947 127 10.496C127.053 10.1973 127.128 9.86666 127.224 9.504C126.882 10.0693 126.52 10.5813 126.136 11.04C125.752 11.488 125.373 11.84 125 12.096C124.637 12.352 124.29 12.48 123.96 12.48Z" fill="white"/>
<path d="M117.2 12.48C116.837 12.48 116.544 12.32 116.32 12C116.107 11.6693 116 11.2907 116 10.864C116 10.5547 116.048 10.1973 116.144 9.79199C116.251 9.38666 116.379 8.98666 116.528 8.59199C116.677 8.19733 116.832 7.87199 116.992 7.61599C117.152 7.35999 117.291 7.23199 117.408 7.23199C117.461 7.23199 117.552 7.26399 117.68 7.32799C117.808 7.38133 117.915 7.45599 118 7.55199C117.883 7.73333 117.739 8.01066 117.568 8.38399C117.397 8.75733 117.248 9.15733 117.12 9.58399C116.992 10.0107 116.928 10.4053 116.928 10.768C116.928 10.8533 116.939 10.9867 116.96 11.168C116.981 11.3387 117.035 11.4933 117.12 11.632C117.205 11.7707 117.333 11.84 117.504 11.84C117.707 11.84 117.915 11.7387 118.128 11.536C118.341 11.3227 118.555 11.0507 118.768 10.72C118.992 10.3893 119.205 10.032 119.408 9.64799C119.611 9.26399 119.797 8.89599 119.968 8.54399C120.149 8.19199 120.299 7.89866 120.416 7.66399C120.48 7.67466 120.571 7.69599 120.688 7.72799C120.816 7.75999 120.928 7.80266 121.024 7.85599C121.131 7.90933 121.184 7.98399 121.184 8.07999C121.184 8.12266 121.131 8.26666 121.024 8.51199C120.917 8.74666 120.789 9.03999 120.64 9.39199C120.501 9.73333 120.379 10.08 120.272 10.432C120.165 10.784 120.112 11.0933 120.112 11.36C120.112 11.552 120.149 11.7067 120.224 11.824C120.309 11.9413 120.448 12 120.64 12C120.864 12 121.136 11.8987 121.456 11.696C121.776 11.4933 122.101 11.2 122.432 10.816C122.763 10.4213 123.056 9.95199 123.312 9.40799L123.52 9.55199C123.296 10.128 123.003 10.64 122.64 11.088C122.277 11.5253 121.893 11.8667 121.488 12.112C121.083 12.3573 120.688 12.48 120.304 12.48C120.027 12.48 119.803 12.4267 119.632 12.32C119.472 12.2133 119.355 12.0693 119.28 11.888C119.216 11.7067 119.184 11.5093 119.184 11.296C119.184 11.168 119.195 11.04 119.216 10.912C119.237 10.7733 119.264 10.6347 119.296 10.496C119.104 10.848 118.896 11.1787 118.672 11.488C118.448 11.7867 118.213 12.0267 117.968 12.208C117.723 12.3893 117.467 12.48 117.2 12.48Z" fill="white"/>
<path d="M112.798 12.736C112.339 12.736 111.987 12.6027 111.742 12.336C111.496 12.0693 111.374 11.6747 111.374 11.152C111.374 10.6827 111.459 10.1067 111.63 9.424C111.811 8.73066 112.035 8.02133 112.302 7.296C112.195 7.27466 112.094 7.25866 111.998 7.248C111.902 7.22666 111.811 7.2 111.726 7.168V6.88C111.811 6.89066 111.912 6.90133 112.03 6.912C112.147 6.92266 112.28 6.93333 112.43 6.944C112.654 6.368 112.894 5.81333 113.15 5.28C113.406 4.736 113.656 4.256 113.902 3.84C114.158 3.41333 114.398 3.07733 114.622 2.832C114.856 2.576 115.054 2.448 115.214 2.448C115.299 2.448 115.374 2.48 115.438 2.544C115.512 2.59733 115.55 2.68266 115.55 2.8C115.55 2.98133 115.438 3.28 115.214 3.696C114.99 4.10133 114.712 4.58666 114.382 5.152C114.051 5.71733 113.731 6.33066 113.422 6.992C113.518 6.992 113.614 6.992 113.71 6.992C113.816 6.992 113.918 6.992 114.014 6.992C114.366 6.992 114.734 6.98666 115.118 6.976C115.512 6.96533 115.907 6.93866 116.302 6.896V7.184C115.715 7.248 115.187 7.296 114.718 7.328C114.259 7.36 113.848 7.376 113.486 7.376C113.443 7.376 113.4 7.376 113.358 7.376C113.326 7.376 113.288 7.376 113.246 7.376C113 7.94133 112.792 8.52266 112.622 9.12C112.451 9.71733 112.366 10.2987 112.366 10.864C112.366 11.3227 112.435 11.6533 112.574 11.856C112.712 12.048 112.942 12.144 113.262 12.144C113.816 12.144 114.36 11.8987 114.894 11.408C115.427 10.9173 115.896 10.2507 116.302 9.408L116.51 9.568C116.254 10.1653 115.928 10.704 115.534 11.184C115.15 11.664 114.723 12.0427 114.254 12.32C113.784 12.5973 113.299 12.736 112.798 12.736Z" fill="white"/>
<path d="M106.107 13.392C105.531 13.392 104.987 13.2853 104.475 13.072C103.963 12.8693 103.547 12.5547 103.227 12.128C102.918 11.7013 102.763 11.168 102.763 10.528C102.763 9.97333 102.87 9.54133 103.083 9.232C103.307 8.92266 103.579 8.704 103.899 8.576C104.219 8.448 104.523 8.384 104.811 8.384C104.523 8.69333 104.305 9.03466 104.155 9.408C104.006 9.78133 103.931 10.1547 103.931 10.528C103.931 10.9227 104.017 11.2907 104.187 11.632C104.369 11.9733 104.641 12.2453 105.003 12.448C105.366 12.6613 105.825 12.768 106.379 12.768C106.859 12.768 107.329 12.6773 107.787 12.496C108.246 12.3253 108.619 12.0693 108.907 11.728C109.206 11.376 109.355 10.944 109.355 10.432C109.355 9.97333 109.238 9.57866 109.003 9.248C108.769 8.91733 108.465 8.624 108.091 8.368C107.729 8.112 107.339 7.86666 106.923 7.632C106.507 7.39733 106.113 7.152 105.739 6.896C105.377 6.62933 105.078 6.32533 104.843 5.984C104.609 5.64266 104.491 5.232 104.491 4.752C104.491 4.304 104.598 3.83466 104.811 3.344C105.025 2.85333 105.329 2.38933 105.723 1.952C106.129 1.51466 106.609 1.16266 107.163 0.895996C107.729 0.618663 108.358 0.479996 109.051 0.479996C109.681 0.479996 110.118 0.634662 110.363 0.943995C110.609 1.24266 110.731 1.62133 110.731 2.08C110.731 2.464 110.662 2.88 110.523 3.328C110.395 3.76533 110.235 4.18666 110.043 4.592C109.851 4.98666 109.67 5.32266 109.499 5.6C109.307 5.55733 109.169 5.47733 109.083 5.36C109.009 5.232 108.971 5.08266 108.971 4.912C108.971 4.688 109.019 4.432 109.115 4.144C109.211 3.856 109.318 3.55733 109.435 3.248C109.563 2.93866 109.675 2.64 109.771 2.352C109.867 2.05333 109.915 1.78666 109.915 1.552C109.915 1.33866 109.851 1.17333 109.723 1.056C109.595 0.927996 109.361 0.863996 109.019 0.863996C108.518 0.863996 108.054 0.981329 107.627 1.216C107.201 1.45066 106.827 1.75466 106.507 2.128C106.187 2.49066 105.937 2.87466 105.755 3.28C105.585 3.68533 105.499 4.05333 105.499 4.384C105.499 4.77866 105.611 5.12 105.835 5.408C106.07 5.68533 106.369 5.94133 106.731 6.176C107.094 6.4 107.478 6.62933 107.883 6.864C108.299 7.088 108.689 7.33866 109.051 7.616C109.414 7.89333 109.707 8.224 109.931 8.608C110.166 8.98133 110.283 9.44 110.283 9.984C110.283 10.5387 110.161 11.0293 109.915 11.456C109.67 11.872 109.339 12.224 108.923 12.512C108.518 12.8 108.07 13.0187 107.579 13.168C107.089 13.3173 106.598 13.392 106.107 13.392Z" fill="white"/>
<path d="M92.5024 12.752C92.1717 12.752 91.8944 12.64 91.6704 12.416C91.4357 12.2027 91.3184 11.872 91.3184 11.424C91.3184 11.04 91.4037 10.6293 91.5744 10.192C91.745 9.74399 91.9797 9.30666 92.2784 8.87999C92.577 8.44266 92.913 8.04799 93.2864 7.69599C93.6704 7.33333 94.0704 7.04533 94.4864 6.83199C94.913 6.61866 95.3344 6.51199 95.7504 6.51199C96.1664 6.51199 96.513 6.62399 96.7904 6.84799C97.0677 7.06133 97.2064 7.34933 97.2064 7.71199C97.2064 7.97866 97.1317 8.15999 96.9824 8.25599C96.8437 8.35199 96.657 8.39999 96.4224 8.39999C96.4437 8.31466 96.4597 8.22399 96.4704 8.12799C96.4917 8.02133 96.5024 7.92533 96.5024 7.83999C96.5024 7.59466 96.4437 7.38666 96.3264 7.21599C96.209 7.03466 96.0064 6.94399 95.7184 6.94399C95.4197 6.94399 95.1157 7.05066 94.8064 7.26399C94.497 7.46666 94.1984 7.74399 93.9104 8.09599C93.6224 8.43733 93.3664 8.81066 93.1424 9.21599C92.9184 9.62133 92.7424 10.0213 92.6144 10.416C92.4864 10.8107 92.4224 11.1627 92.4224 11.472C92.4224 11.888 92.5664 12.096 92.8544 12.096C93.0997 12.096 93.3664 11.984 93.6544 11.76C93.9424 11.5253 94.2357 11.232 94.5344 10.88C94.8437 10.5173 95.137 10.144 95.4144 9.75999C95.6917 9.37599 95.937 9.02399 96.1504 8.70399C96.193 8.63999 96.2197 8.60799 96.2304 8.60799C96.2944 8.61866 96.3744 8.63999 96.4704 8.67199C96.577 8.70399 96.6677 8.74666 96.7424 8.79999C96.817 8.85333 96.8544 8.92266 96.8544 9.00799C96.8544 9.10399 96.8064 9.23733 96.7104 9.40799C96.6144 9.56799 96.5077 9.75466 96.3904 9.96799C96.273 10.1813 96.1664 10.4 96.0704 10.624C95.9744 10.8373 95.9264 11.04 95.9264 11.232C95.9264 11.392 95.969 11.552 96.0544 11.712C96.1397 11.8613 96.2784 11.936 96.4704 11.936C96.7584 11.936 97.137 11.728 97.6064 11.312C98.0757 10.8853 98.5504 10.2507 99.0304 9.40799L99.1904 9.56799C98.9664 10.144 98.6784 10.6507 98.3264 11.088C97.9744 11.5253 97.5957 11.8667 97.1904 12.112C96.7957 12.3573 96.4064 12.48 96.0224 12.48C95.6277 12.48 95.3344 12.3627 95.1424 12.128C94.961 11.8933 94.8704 11.6373 94.8704 11.36C94.8704 11.296 94.8757 11.2267 94.8864 11.152C94.897 11.0667 94.9077 10.9813 94.9184 10.896C94.4597 11.5147 94.0384 11.9787 93.6544 12.288C93.281 12.5973 92.897 12.752 92.5024 12.752Z" fill="white"/>
<path d="M89.3457 12.608C89.0471 12.608 88.7911 12.5067 88.5777 12.304C88.3644 12.1013 88.1937 11.8453 88.0657 11.536C87.9484 11.2267 87.8577 10.912 87.7937 10.592C87.7404 10.2613 87.7137 9.97334 87.7137 9.728C87.8311 9.728 88.0017 9.70134 88.2257 9.648C88.4497 9.584 88.6791 9.49334 88.9137 9.376C89.1484 9.248 89.3457 9.088 89.5057 8.896C89.6764 8.69334 89.7617 8.45867 89.7617 8.192C89.7617 7.968 89.6817 7.792 89.5217 7.664C89.3617 7.536 89.1751 7.472 88.9617 7.472C88.6311 7.472 88.3217 7.58934 88.0337 7.824C87.7457 8.048 87.4844 8.34667 87.2497 8.72C87.0257 9.08267 86.8231 9.47201 86.6417 9.88801C86.4604 10.304 86.3057 10.6987 86.1777 11.072C86.0497 11.4453 85.9431 11.7547 85.8577 12C85.7937 12.192 85.7031 12.32 85.5857 12.384C85.4684 12.4587 85.3457 12.496 85.2177 12.496C85.0364 12.496 84.9031 12.4213 84.8177 12.272C84.7431 12.1227 84.6951 11.936 84.6737 11.712C84.6631 11.4773 84.6577 11.2373 84.6577 10.992C84.6577 10.4373 84.7484 9.79734 84.9297 9.072C85.1111 8.34667 85.3511 7.59467 85.6497 6.816C85.9591 6.02667 86.2951 5.264 86.6577 4.528C87.0204 3.792 87.3831 3.12534 87.7457 2.528C88.1084 1.93067 88.4444 1.456 88.7537 1.104C89.0631 0.752004 89.3137 0.576004 89.5057 0.576004C89.6551 0.576004 89.7724 0.677337 89.8577 0.880004C89.9537 1.08267 90.0017 1.328 90.0017 1.616C90.0017 1.97867 89.9217 2.38934 89.7617 2.848C89.6017 3.296 89.3724 3.74934 89.0737 4.208C88.7857 4.66667 88.4391 5.09867 88.0337 5.504C87.6391 5.90934 87.2071 6.256 86.7377 6.544C86.3857 7.408 86.1191 8.25067 85.9377 9.072C85.7671 9.88267 85.6817 10.5653 85.6817 11.12C85.8524 10.6933 86.0551 10.224 86.2897 9.712C86.5351 9.2 86.8124 8.70934 87.1217 8.24C87.4311 7.77067 87.7671 7.38667 88.1297 7.088C88.4924 6.78934 88.8711 6.64 89.2657 6.64C89.6604 6.64 89.9964 6.77867 90.2737 7.056C90.5511 7.33334 90.6897 7.66934 90.6897 8.064C90.6897 8.40534 90.5991 8.69867 90.4177 8.94401C90.2471 9.17867 90.0337 9.37067 89.7777 9.52001C89.5324 9.65867 89.2817 9.76534 89.0257 9.84C88.7804 9.904 88.5777 9.936 88.4177 9.936C88.4284 10.0213 88.4604 10.176 88.5137 10.4C88.5671 10.624 88.6417 10.8587 88.7377 11.104C88.8444 11.3493 88.9724 11.5627 89.1217 11.744C89.2711 11.9147 89.4524 12 89.6657 12C89.9751 12 90.2684 11.8827 90.5457 11.648C90.8231 11.4133 91.0844 11.104 91.3297 10.72C91.5857 10.3253 91.8204 9.88267 92.0337 9.392L92.1937 9.552C92.0444 10.0747 91.8151 10.5707 91.5057 11.04C91.1964 11.4987 90.8497 11.872 90.4657 12.16C90.0924 12.4587 89.7191 12.608 89.3457 12.608ZM87.0097 5.904C87.5004 5.50934 87.9271 5.06134 88.2897 4.56C88.6631 4.05867 88.9511 3.57867 89.1537 3.12C89.3564 2.65067 89.4577 2.28267 89.4577 2.016C89.4577 1.96267 89.4524 1.92534 89.4417 1.904C89.4417 1.88267 89.4311 1.872 89.4097 1.872C89.3031 1.872 89.1164 2.05867 88.8497 2.432C88.5937 2.80534 88.3004 3.30134 87.9697 3.92C87.6391 4.528 87.3191 5.18934 87.0097 5.904Z" fill="white"/>
<path d="M80.7581 12.816C80.2568 12.816 79.8568 12.704 79.5581 12.48C79.2701 12.2667 79.0675 12 78.9501 11.68C78.8221 11.36 78.7581 11.04 78.7581 10.72C78.7581 10.4 78.8008 10.1547 78.8861 9.98399C78.9714 9.81333 79.0728 9.68533 79.1901 9.59999C79.3181 9.51466 79.4354 9.45066 79.5421 9.40799C79.6594 9.36533 79.7395 9.32266 79.7821 9.27999C80.1021 8.92799 80.3955 8.55999 80.6621 8.17599C80.9288 7.79199 81.1635 7.38666 81.3661 6.95999V6.76799C81.3661 6.37333 81.4301 6.09599 81.5581 5.93599C81.6968 5.76533 81.8408 5.67999 81.9901 5.67999C82.0755 5.67999 82.1395 5.70133 82.1821 5.74399C82.2248 5.78666 82.2461 5.83466 82.2461 5.88799C82.2461 5.94133 82.2301 6.02666 82.1981 6.14399C82.1661 6.26132 82.1501 6.41066 82.1501 6.59199C82.1501 6.94399 82.2194 7.32799 82.3581 7.74399C82.4968 8.14933 82.6354 8.58133 82.7741 9.03999C82.9128 9.48799 82.9821 9.95733 82.9821 10.448C82.9821 10.5867 82.9715 10.7253 82.9501 10.864C82.9395 10.992 82.9181 11.1147 82.8861 11.232C83.2594 11.168 83.6114 11.0027 83.9421 10.736C84.2728 10.4587 84.5928 10.0213 84.9021 9.42399L85.0461 9.58399C84.8435 10.1707 84.5395 10.6187 84.1341 10.928C83.7288 11.2267 83.2861 11.4133 82.8061 11.488C82.6354 11.9467 82.3635 12.2827 81.9901 12.496C81.6275 12.7093 81.2168 12.816 80.7581 12.816ZM80.7901 12.256C80.9181 12.256 81.0888 12.2133 81.3021 12.128C81.5154 12.0427 81.6808 11.824 81.7981 11.472C81.3501 11.3867 80.9501 11.2107 80.5981 10.944C80.2568 10.6773 80.0008 10.4107 79.8301 10.144C79.5954 10.1547 79.4781 10.3413 79.4781 10.704C79.4781 11.088 79.5901 11.4453 79.8141 11.776C80.0488 12.096 80.3741 12.256 80.7901 12.256ZM81.8781 11.216C81.8995 11.1093 81.9155 10.9973 81.9261 10.88C81.9368 10.7627 81.9421 10.624 81.9421 10.464C81.9421 9.96266 81.8781 9.46666 81.7501 8.97599C81.6328 8.47466 81.5314 8.00533 81.4461 7.56799C81.2008 7.97333 80.9395 8.36266 80.6621 8.73599C80.3955 9.09866 80.1395 9.40266 79.8941 9.64799C80.0541 9.98933 80.2995 10.3093 80.6301 10.608C80.9715 10.9067 81.3875 11.1093 81.8781 11.216Z" fill="white"/>
<path d="M68.1192 12.512C67.7139 12.512 67.3992 12.3787 67.1752 12.112C66.9512 11.856 66.8392 11.5253 66.8392 11.12C66.8392 10.7787 66.9086 10.4 67.0472 9.98399C67.1966 9.55733 67.3992 9.13599 67.6552 8.71999C67.9112 8.29333 68.1992 7.90399 68.5192 7.55199C68.8499 7.19999 69.2019 6.91733 69.5752 6.70399C69.9486 6.47999 70.3272 6.36799 70.7112 6.36799C70.9139 6.36799 71.0686 6.39999 71.1752 6.46399C71.2819 6.52799 71.3566 6.60799 71.3992 6.70399C71.4206 6.69333 71.4366 6.68799 71.4472 6.68799C71.4686 6.68799 71.4899 6.68799 71.5112 6.68799C71.7139 6.68799 71.8526 6.76799 71.9272 6.92799C72.0126 7.08799 72.0552 7.21599 72.0552 7.31199C72.0552 7.43999 72.0019 7.61066 71.8952 7.82399C71.7886 8.02666 71.6819 8.25599 71.5752 8.51199C71.4792 8.76799 71.4312 9.03999 71.4312 9.32799C71.4312 9.62666 71.5059 9.85066 71.6552 9.99999C71.8046 10.1387 72.0446 10.208 72.3752 10.208C72.5886 10.208 72.8126 10.1067 73.0472 9.90399C73.2926 9.69066 73.5326 9.42399 73.7672 9.10399C74.0019 8.77333 74.2099 8.41599 74.3912 8.03199C74.5832 7.64799 74.7272 7.27999 74.8232 6.92799C74.7166 6.82133 74.6632 6.69333 74.6632 6.54399C74.6632 6.33066 74.7059 6.14399 74.7912 5.98399C74.8766 5.81333 74.9726 5.68533 75.0792 5.59999C75.1966 5.50399 75.2819 5.45599 75.3352 5.45599C75.4526 5.45599 75.5166 5.50933 75.5272 5.61599C75.5486 5.71199 75.5592 5.78666 75.5592 5.83999C75.5592 5.89333 75.5272 5.99999 75.4632 6.15999C75.4099 6.30933 75.3832 6.39999 75.3832 6.43199C75.3832 6.58133 75.4632 6.71999 75.6232 6.84799C75.7939 6.96533 75.9859 7.10399 76.1992 7.26399C76.4126 7.41333 76.5992 7.59999 76.7592 7.82399C76.9299 8.03733 77.0152 8.31466 77.0152 8.65599C77.0152 8.97599 76.9459 9.30133 76.8072 9.63199C76.6792 9.96266 76.5459 10.2773 76.4072 10.576C76.2792 10.8747 76.2152 11.136 76.2152 11.36C76.2152 11.552 76.2632 11.68 76.3592 11.744C76.4552 11.808 76.5672 11.84 76.6952 11.84C76.9512 11.84 77.2126 11.76 77.4792 11.6C77.7566 11.44 78.0232 11.2373 78.2792 10.992C78.5352 10.7467 78.7646 10.4907 78.9672 10.224C79.1699 9.94666 79.3192 9.69066 79.4152 9.45599L79.6232 9.61599C79.4206 10.064 79.1432 10.5067 78.7912 10.944C78.4392 11.3707 78.0446 11.7227 77.6072 12C77.1806 12.2773 76.7379 12.416 76.2792 12.416C75.9166 12.416 75.6286 12.32 75.4152 12.128C75.2126 11.936 75.1112 11.6853 75.1112 11.376C75.1112 11.056 75.1859 10.72 75.3352 10.368C75.4846 10.016 75.6286 9.66933 75.7672 9.32799C75.9166 8.97599 75.9912 8.66133 75.9912 8.38399C75.9912 8.04266 75.8899 7.79199 75.6872 7.63199C75.4952 7.46133 75.2979 7.30666 75.0952 7.16799C74.9779 7.53066 74.8179 7.91466 74.6152 8.31999C74.4232 8.71466 74.2046 9.08799 73.9592 9.43999C73.7139 9.78133 73.4472 10.0587 73.1592 10.272C72.8819 10.4853 72.5886 10.592 72.2792 10.592C71.9806 10.592 71.7086 10.5333 71.4632 10.416C71.2286 10.288 71.0472 10.1013 70.9192 9.85599C70.5886 10.6347 70.1779 11.2747 69.6872 11.776C69.2072 12.2667 68.6846 12.512 68.1192 12.512ZM68.4712 11.824C68.7166 11.824 68.9779 11.7173 69.2552 11.504C69.5326 11.28 69.8046 10.9813 70.0712 10.608C70.3379 10.2347 70.5672 9.81866 70.7592 9.35999C70.6952 9.10399 70.6632 8.79999 70.6632 8.44799C70.6632 8.20266 70.6739 7.98933 70.6952 7.80799C70.7272 7.62666 70.7646 7.46666 70.8072 7.32799C70.8606 7.18933 70.9139 7.07733 70.9672 6.99199C70.6046 6.99199 70.2632 7.09333 69.9432 7.29599C69.6339 7.48799 69.3512 7.74399 69.0952 8.06399C68.8392 8.37333 68.6206 8.70933 68.4392 9.07199C68.2579 9.43466 68.1139 9.78666 68.0072 10.128C67.9112 10.4693 67.8632 10.7627 67.8632 11.008C67.8632 11.2533 67.9166 11.4507 68.0232 11.6C68.1299 11.7493 68.2792 11.824 68.4712 11.824Z" fill="white"/>
<path d="M59.7733 16.48C59.6879 16.48 59.6079 16.432 59.5333 16.336C59.4479 16.2507 59.3839 16.1547 59.3413 16.048C59.2986 15.952 59.2773 15.8933 59.2773 15.872C59.4266 15.3493 59.5759 14.88 59.7253 14.464C59.8639 14.0587 60.0079 13.6373 60.1573 13.2C60.2959 12.7733 60.4346 12.272 60.5733 11.696C60.7119 11.1093 60.8559 10.384 61.0053 9.52C61.1546 8.656 61.3039 7.584 61.4533 6.304C61.4639 6.208 61.4853 6.13866 61.5173 6.096C61.5493 6.05333 61.6293 6.032 61.7573 6.032C62.0346 6.032 62.2319 6.112 62.3493 6.272C62.4666 6.42133 62.5253 6.58666 62.5253 6.768C62.5253 6.91733 62.4933 7.184 62.4293 7.568C62.3653 7.952 62.2746 8.40533 62.1573 8.928C62.3386 8.576 62.5626 8.21866 62.8293 7.856C63.1066 7.49333 63.4213 7.18933 63.7733 6.944C64.1253 6.69866 64.5093 6.576 64.9253 6.576C65.3946 6.576 65.7786 6.74666 66.0773 7.088C66.3866 7.41866 66.5413 7.856 66.5413 8.4C66.5413 8.816 66.4453 9.25866 66.2533 9.728C66.0719 10.1867 65.8106 10.624 65.4693 11.04C65.1386 11.4453 64.7439 11.776 64.2853 12.032C63.8266 12.288 63.3199 12.416 62.7653 12.416C62.4879 12.416 62.2639 12.384 62.0933 12.32C61.9226 12.256 61.8373 12.192 61.8373 12.128C61.8373 12.0853 61.8746 12.0587 61.9493 12.048C62.0346 12.048 62.1306 12.048 62.2373 12.048C62.6639 12.048 63.0693 11.9467 63.4533 11.744C63.8479 11.5307 64.1999 11.2533 64.5093 10.912C64.8186 10.5707 65.0586 10.192 65.2293 9.776C65.4106 9.36 65.5013 8.94933 65.5013 8.544C65.5013 8.20266 65.4266 7.91467 65.2773 7.68C65.1386 7.43467 64.9093 7.312 64.5893 7.312C64.3119 7.312 64.0346 7.40266 63.7573 7.584C63.4906 7.75466 63.2346 7.97866 62.9893 8.256C62.7546 8.52266 62.5413 8.80533 62.3493 9.104C62.1679 9.392 62.0293 9.65333 61.9333 9.888C61.7413 10.688 61.5493 11.456 61.3573 12.192C61.1653 12.9387 60.9786 13.6107 60.7973 14.208C60.6266 14.816 60.4719 15.312 60.3333 15.696C60.1839 16.08 60.0613 16.3147 59.9653 16.4C59.9119 16.4533 59.8479 16.48 59.7733 16.48Z" fill="white"/>
<path d="M57.1811 12.704C56.5305 12.704 56.0398 12.5227 55.7091 12.16C55.3891 11.808 55.2291 11.3707 55.2291 10.848C55.2291 10.368 55.3465 9.86134 55.5811 9.32801C55.8265 8.79467 56.1465 8.29334 56.5411 7.82401C56.9465 7.35467 57.3891 6.97601 57.8691 6.68801C58.3491 6.38934 58.8238 6.24001 59.2931 6.24001C59.5385 6.24001 59.7625 6.304 59.9651 6.432C60.1785 6.56 60.2851 6.82134 60.2851 7.21601C60.2851 7.62134 60.1625 8.00534 59.9171 8.36801C59.6825 8.72001 59.3678 9.03467 58.9731 9.31201C58.5891 9.58934 58.1625 9.81867 57.6931 10C57.2345 10.1707 56.7758 10.2773 56.3171 10.32C56.2958 10.4267 56.2798 10.528 56.2691 10.624C56.2585 10.72 56.2531 10.8107 56.2531 10.896C56.2531 11.056 56.2691 11.216 56.3011 11.376C56.3438 11.536 56.4131 11.6853 56.5091 11.824C56.6051 11.952 56.7331 12.0533 56.8931 12.128C57.0638 12.2027 57.2718 12.24 57.5171 12.24C57.9758 12.24 58.4291 12.112 58.8771 11.856C59.3251 11.5893 59.7411 11.2427 60.1251 10.816C60.5091 10.3893 60.8345 9.92001 61.1011 9.40801L61.2931 9.55201C61.0051 10.192 60.6371 10.7467 60.1891 11.216C59.7518 11.6853 59.2718 12.048 58.7491 12.304C58.2371 12.5707 57.7145 12.704 57.1811 12.704ZM56.3971 10.016C56.6851 9.92001 57.0105 9.78134 57.3731 9.60001C57.7358 9.40801 58.0825 9.18401 58.4131 8.92801C58.7545 8.67201 59.0318 8.38934 59.2451 8.08001C59.4691 7.77067 59.5811 7.44534 59.5811 7.10401C59.5811 6.98667 59.5598 6.89601 59.5171 6.83201C59.4745 6.76801 59.3838 6.73601 59.2451 6.73601C58.9891 6.73601 58.7171 6.83734 58.4291 7.04001C58.1411 7.23201 57.8638 7.48801 57.5971 7.80801C57.3305 8.12801 57.0905 8.48001 56.8771 8.86401C56.6638 9.24801 56.5038 9.63201 56.3971 10.016Z" fill="white"/>
<path d="M48.5958 12.608C48.3931 12.608 48.2331 12.4373 48.1158 12.096C47.9984 11.7547 47.9398 11.3707 47.9398 10.944C47.9398 10.432 48.0251 9.824 48.1958 9.12C48.3664 8.416 48.5904 7.67467 48.8678 6.896C49.1451 6.11734 49.4544 5.35467 49.7958 4.608C50.1478 3.86134 50.5051 3.184 50.8678 2.576C51.2304 1.968 51.5718 1.48267 51.8918 1.12C52.2118 0.757338 52.4891 0.576004 52.7238 0.576004C52.9158 0.576004 53.0491 0.693337 53.1238 0.928004C53.2091 1.152 53.2518 1.37067 53.2518 1.584C53.2518 1.88267 53.1824 2.24534 53.0438 2.672C52.9158 3.09867 52.7344 3.55734 52.4998 4.048C52.2651 4.528 51.9931 5.00267 51.6838 5.472C51.3744 5.94134 51.0384 6.37334 50.6758 6.768C50.3131 7.152 49.9451 7.45601 49.5718 7.68001C49.4438 7.98934 49.3318 8.336 49.2358 8.72C49.1504 9.104 49.0864 9.48267 49.0438 9.856C49.0011 10.2187 48.9798 10.544 48.9798 10.832C48.9798 10.9493 48.9798 11.0507 48.9798 11.136C48.9904 11.2213 49.0011 11.3013 49.0118 11.376C49.1611 10.9387 49.3211 10.5173 49.4918 10.112C49.6731 9.696 49.8651 9.31734 50.0678 8.976C50.2704 8.624 50.4838 8.32 50.7078 8.064C50.9424 7.79734 51.1878 7.59467 51.4438 7.456C51.6998 7.30667 51.9718 7.23201 52.2598 7.23201C52.5584 7.23201 52.7931 7.30667 52.9638 7.456C53.1451 7.59467 53.2731 7.776 53.3478 8C53.4331 8.21334 53.4758 8.43734 53.4758 8.672C53.4758 9.00267 53.4171 9.32267 53.2998 9.632C53.1931 9.94134 53.0811 10.24 52.9638 10.528C52.8464 10.816 52.7878 11.0933 52.7878 11.36C52.7878 11.5733 52.8304 11.728 52.9158 11.824C53.0118 11.92 53.1291 11.968 53.2678 11.968C53.5131 11.968 53.7851 11.8507 54.0838 11.616C54.3931 11.3813 54.6971 11.072 54.9958 10.688C55.2944 10.2933 55.5504 9.86667 55.7638 9.408L55.9718 9.60001C55.7478 10.1227 55.4758 10.5973 55.1558 11.024C54.8358 11.44 54.4838 11.7707 54.0998 12.016C53.7158 12.2613 53.3158 12.384 52.8998 12.384C52.5371 12.384 52.2598 12.288 52.0678 12.096C51.8864 11.904 51.7958 11.664 51.7958 11.376C51.7958 11.152 51.8384 10.9013 51.9238 10.624C52.0091 10.3467 52.0891 10.064 52.1638 9.776C52.2491 9.488 52.2918 9.216 52.2918 8.96C52.2918 8.68267 52.2331 8.48534 52.1158 8.368C51.9984 8.25067 51.8544 8.192 51.6838 8.192C51.4171 8.192 51.1771 8.29867 50.9638 8.512C50.7504 8.72534 50.5531 9.00267 50.3718 9.344C50.2011 9.67467 50.0358 10.0267 49.8758 10.4C49.7264 10.7733 49.5824 11.1307 49.4438 11.472C49.3051 11.8027 49.1664 12.0747 49.0278 12.288C48.8891 12.5013 48.7451 12.608 48.5958 12.608ZM49.7798 7.056C50.0784 6.82134 50.3664 6.52267 50.6438 6.16C50.9318 5.79734 51.1984 5.41334 51.4438 5.008C51.6891 4.592 51.9078 4.18667 52.0998 3.792C52.2918 3.39734 52.4411 3.04 52.5478 2.72C52.6544 2.4 52.7078 2.16 52.7078 2C52.7078 1.94667 52.7024 1.91467 52.6918 1.904C52.6811 1.88267 52.6651 1.872 52.6438 1.872C52.5691 1.872 52.4144 2.02134 52.1798 2.32C51.9558 2.608 51.6944 2.99734 51.3958 3.488C51.0971 3.97867 50.8038 4.53334 50.5158 5.152C50.2278 5.77067 49.9824 6.40534 49.7798 7.056Z" fill="white"/>
<path d="M43.4415 13.392C42.6842 13.392 42.0708 13.2 41.6015 12.816C41.1428 12.4427 40.8068 11.9573 40.5935 11.36C40.3908 10.7627 40.2895 10.1387 40.2895 9.488C40.2895 8.64534 40.4175 7.79734 40.6735 6.944C40.9295 6.09067 41.2762 5.28 41.7135 4.512C42.1615 3.73334 42.6682 3.04534 43.2335 2.448C43.7988 1.84 44.3908 1.36534 45.0095 1.024C45.6388 0.672002 46.2575 0.496002 46.8655 0.496002C47.3028 0.496002 47.6548 0.602669 47.9215 0.816002C48.1988 1.01867 48.3375 1.37067 48.3375 1.872C48.3375 2.18134 48.2842 2.53334 48.1775 2.928C48.0708 3.312 47.9268 3.68534 47.7455 4.048C47.5642 4.4 47.3615 4.69334 47.1375 4.928C46.9242 5.16267 46.7055 5.28 46.4815 5.28C46.3962 5.28 46.3055 5.25334 46.2095 5.2C46.1242 5.14667 46.0495 5.05067 45.9855 4.912C46.1455 4.73067 46.3215 4.50667 46.5135 4.24C46.7162 3.96267 46.9082 3.67467 47.0895 3.376C47.2708 3.06667 47.4148 2.768 47.5215 2.48C47.6388 2.18134 47.6975 1.92 47.6975 1.696C47.6975 1.48267 47.6335 1.312 47.5055 1.184C47.3882 1.04534 47.1908 0.976003 46.9135 0.976003C46.4548 0.976003 45.9748 1.16267 45.4735 1.536C44.9828 1.90934 44.5028 2.41067 44.0335 3.04C43.5748 3.65867 43.1588 4.352 42.7855 5.12C42.4122 5.888 42.1135 6.672 41.8895 7.472C41.6762 8.272 41.5695 9.03467 41.5695 9.76C41.5695 10.2827 41.6442 10.784 41.7935 11.264C41.9428 11.7333 42.1828 12.112 42.5135 12.4C42.8548 12.6987 43.2922 12.848 43.8255 12.848C44.3908 12.848 44.9508 12.688 45.5055 12.368C46.0708 12.048 46.5882 11.6267 47.0575 11.104C47.5268 10.5813 47.9002 10.016 48.1775 9.408L48.4015 9.568C48.0495 10.2613 47.6228 10.9013 47.1215 11.488C46.6202 12.064 46.0602 12.5227 45.4415 12.864C44.8228 13.216 44.1562 13.392 43.4415 13.392Z" fill="white"/>
<path d="M29.5805 12.752C29.2498 12.752 28.9725 12.64 28.7485 12.416C28.5138 12.2027 28.3965 11.872 28.3965 11.424C28.3965 11.04 28.4818 10.6293 28.6525 10.192C28.8232 9.74399 29.0578 9.30666 29.3565 8.87999C29.6552 8.44266 29.9912 8.04799 30.3645 7.69599C30.7485 7.33333 31.1485 7.04533 31.5645 6.83199C31.9912 6.61866 32.4125 6.51199 32.8285 6.51199C33.2445 6.51199 33.5912 6.62399 33.8685 6.84799C34.1458 7.06133 34.2845 7.34933 34.2845 7.71199C34.2845 7.97866 34.2098 8.15999 34.0605 8.25599C33.9218 8.35199 33.7352 8.39999 33.5005 8.39999C33.5218 8.31466 33.5378 8.22399 33.5485 8.12799C33.5698 8.02133 33.5805 7.92533 33.5805 7.83999C33.5805 7.59466 33.5218 7.38666 33.4045 7.21599C33.2872 7.03466 33.0845 6.94399 32.7965 6.94399C32.4978 6.94399 32.1938 7.05066 31.8845 7.26399C31.5752 7.46666 31.2765 7.74399 30.9885 8.09599C30.7005 8.43733 30.4445 8.81066 30.2205 9.21599C29.9965 9.62133 29.8205 10.0213 29.6925 10.416C29.5645 10.8107 29.5005 11.1627 29.5005 11.472C29.5005 11.888 29.6445 12.096 29.9325 12.096C30.1778 12.096 30.4445 11.984 30.7325 11.76C31.0205 11.5253 31.3138 11.232 31.6125 10.88C31.9218 10.5173 32.2152 10.144 32.4925 9.75999C32.7698 9.37599 33.0152 9.02399 33.2285 8.70399C33.2712 8.63999 33.2978 8.60799 33.3085 8.60799C33.3725 8.61866 33.4525 8.63999 33.5485 8.67199C33.6552 8.70399 33.7458 8.74666 33.8205 8.79999C33.8952 8.85333 33.9325 8.92266 33.9325 9.00799C33.9325 9.10399 33.8845 9.23733 33.7885 9.40799C33.6925 9.56799 33.5858 9.75466 33.4685 9.96799C33.3511 10.1813 33.2445 10.4 33.1485 10.624C33.0525 10.8373 33.0045 11.04 33.0045 11.232C33.0045 11.392 33.0472 11.552 33.1325 11.712C33.2178 11.8613 33.3565 11.936 33.5485 11.936C33.8365 11.936 34.2152 11.728 34.6845 11.312C35.1538 10.8853 35.6285 10.2507 36.1085 9.40799L36.2685 9.56799C36.0445 10.144 35.7565 10.6507 35.4045 11.088C35.0525 11.5253 34.6738 11.8667 34.2685 12.112C33.8738 12.3573 33.4845 12.48 33.1005 12.48C32.7058 12.48 32.4125 12.3627 32.2205 12.128C32.0392 11.8933 31.9485 11.6373 31.9485 11.36C31.9485 11.296 31.9538 11.2267 31.9645 11.152C31.9752 11.0667 31.9858 10.9813 31.9965 10.896C31.5378 11.5147 31.1165 11.9787 30.7325 12.288C30.3592 12.5973 29.9752 12.752 29.5805 12.752Z" fill="white"/>
<path d="M26.1051 12.416C25.6891 12.416 25.3798 12.2827 25.1771 12.016C24.9745 11.76 24.8731 11.4453 24.8731 11.072C24.8731 10.8267 24.9158 10.5173 25.0011 10.144C25.0971 9.77066 25.2198 9.38133 25.3691 8.976C25.5185 8.56 25.6891 8.17066 25.8811 7.808C26.0838 7.44533 26.2971 7.152 26.5211 6.928C26.7451 6.69333 26.9638 6.576 27.1771 6.576C27.2731 6.576 27.3531 6.608 27.4171 6.672C27.4918 6.72533 27.5291 6.81066 27.5291 6.928C27.5291 7.056 27.4438 7.264 27.2731 7.552C27.1131 7.84 26.9211 8.17066 26.6971 8.544C26.4731 8.91733 26.2758 9.312 26.1051 9.728C25.9451 10.1333 25.8651 10.5227 25.8651 10.896C25.8651 11.28 25.9291 11.536 26.0571 11.664C26.1851 11.792 26.3825 11.856 26.6491 11.856C27.0118 11.856 27.3958 11.6747 27.8011 11.312C28.2171 10.9493 28.6545 10.3147 29.1131 9.408L29.2571 9.568C28.9478 10.4853 28.4998 11.1893 27.9131 11.68C27.3371 12.1707 26.7345 12.416 26.1051 12.416ZM28.0251 5.088C27.8545 5.088 27.6998 5.04533 27.5611 4.96C27.4331 4.87466 27.3691 4.74133 27.3691 4.56C27.3691 4.336 27.4971 4.144 27.7531 3.984C28.0198 3.81333 28.2811 3.728 28.5371 3.728C28.6971 3.728 28.8251 3.76533 28.9211 3.84C29.0171 3.91466 29.0651 4.04266 29.0651 4.224C29.0651 4.42666 28.9531 4.624 28.7291 4.816C28.5158 4.99733 28.2811 5.088 28.0251 5.088Z" fill="white"/>
<path d="M22.2458 12.416C21.8298 12.416 21.5204 12.2827 21.3178 12.016C21.1151 11.76 21.0138 11.4453 21.0138 11.072C21.0138 10.8267 21.0564 10.5173 21.1418 10.144C21.2378 9.77066 21.3604 9.38133 21.5098 8.976C21.6591 8.56 21.8298 8.17066 22.0218 7.808C22.2244 7.44533 22.4378 7.152 22.6618 6.928C22.8858 6.69333 23.1044 6.576 23.3178 6.576C23.4138 6.576 23.4938 6.608 23.5578 6.672C23.6324 6.72533 23.6698 6.81066 23.6698 6.928C23.6698 7.056 23.5844 7.264 23.4138 7.552C23.2538 7.84 23.0618 8.17066 22.8378 8.544C22.6138 8.91733 22.4164 9.312 22.2458 9.728C22.0858 10.1333 22.0058 10.5227 22.0058 10.896C22.0058 11.28 22.0698 11.536 22.1978 11.664C22.3258 11.792 22.5231 11.856 22.7898 11.856C23.1524 11.856 23.5364 11.6747 23.9418 11.312C24.3578 10.9493 24.7951 10.3147 25.2538 9.408L25.3978 9.568C25.0884 10.4853 24.6404 11.1893 24.0538 11.68C23.4778 12.1707 22.8751 12.416 22.2458 12.416ZM24.1658 5.088C23.9951 5.088 23.8404 5.04533 23.7018 4.96C23.5738 4.87466 23.5098 4.74133 23.5098 4.56C23.5098 4.336 23.6378 4.144 23.8938 3.984C24.1604 3.81333 24.4218 3.728 24.6778 3.728C24.8378 3.728 24.9658 3.76533 25.0618 3.84C25.1578 3.91466 25.2058 4.04266 25.2058 4.224C25.2058 4.42666 25.0938 4.624 24.8698 4.816C24.6564 4.99733 24.4218 5.088 24.1658 5.088Z" fill="white"/>
<path d="M18.6405 12.48C18.1818 12.48 17.8512 12.32 17.6485 12C17.4565 11.6907 17.3605 11.3013 17.3605 10.832C17.3605 10.32 17.4565 9.712 17.6485 9.008C17.8405 8.304 18.0912 7.56266 18.4005 6.784C18.7205 6.00533 19.0672 5.248 19.4405 4.512C19.8138 3.76533 20.1872 3.088 20.5605 2.48C20.9338 1.872 21.2752 1.38666 21.5845 1.024C21.9045 0.661329 22.1552 0.479996 22.3365 0.479996C22.4538 0.479996 22.5498 0.549329 22.6245 0.687996C22.6992 0.815996 22.7578 0.975995 22.8005 1.168C22.8432 1.34933 22.8645 1.51466 22.8645 1.664C22.8645 1.952 22.7898 2.33066 22.6405 2.8C22.5018 3.25866 22.2992 3.776 22.0325 4.352C21.7765 4.91733 21.4672 5.49333 21.1045 6.08C20.7525 6.656 20.3632 7.21066 19.9365 7.744C19.5205 8.27733 19.0778 8.736 18.6085 9.12C18.5445 9.408 18.4912 9.69066 18.4485 9.968C18.4165 10.2347 18.4005 10.4907 18.4005 10.736C18.4005 11.152 18.4592 11.4613 18.5765 11.664C18.6938 11.8667 18.8698 11.968 19.1045 11.968C19.3925 11.968 19.6752 11.84 19.9525 11.584C20.2405 11.328 20.5072 11.008 20.7525 10.624C21.0085 10.2293 21.2272 9.824 21.4085 9.408L21.6485 9.536C21.2218 10.4427 20.7578 11.1627 20.2565 11.696C19.7552 12.2187 19.2165 12.48 18.6405 12.48ZM18.7525 8.576C19.1258 8.20266 19.4885 7.776 19.8405 7.296C20.1925 6.80533 20.5178 6.29866 20.8165 5.776C21.1258 5.25333 21.3978 4.74666 21.6325 4.256C21.8672 3.76533 22.0485 3.328 22.1765 2.944C22.3045 2.54933 22.3685 2.24533 22.3685 2.032C22.3685 1.92533 22.3525 1.856 22.3205 1.824C22.2992 1.792 22.2778 1.776 22.2565 1.776C22.1712 1.776 22.0218 1.91466 21.8085 2.192C21.6058 2.45866 21.3658 2.82133 21.0885 3.28C20.8112 3.73866 20.5285 4.26133 20.2405 4.848C19.9525 5.43466 19.6752 6.048 19.4085 6.688C19.1525 7.328 18.9338 7.95733 18.7525 8.576Z" fill="white"/>
<path d="M11.4969 12.48C11.1342 12.48 10.8409 12.32 10.6169 12C10.4035 11.6693 10.2969 11.2907 10.2969 10.864C10.2969 10.5547 10.3449 10.1973 10.4409 9.79199C10.5475 9.38666 10.6755 8.98666 10.8249 8.59199C10.9742 8.19733 11.1289 7.87199 11.2889 7.61599C11.4489 7.35999 11.5875 7.23199 11.7049 7.23199C11.7582 7.23199 11.8489 7.26399 11.9769 7.32799C12.1049 7.38133 12.2115 7.45599 12.2969 7.55199C12.1795 7.73333 12.0355 8.01066 11.8649 8.38399C11.6942 8.75733 11.5449 9.15733 11.4169 9.58399C11.2889 10.0107 11.2249 10.4053 11.2249 10.768C11.2249 10.8533 11.2355 10.9867 11.2569 11.168C11.2782 11.3387 11.3315 11.4933 11.4169 11.632C11.5022 11.7707 11.6302 11.84 11.8009 11.84C12.0035 11.84 12.2115 11.7387 12.4249 11.536C12.6382 11.3227 12.8515 11.0507 13.0649 10.72C13.2889 10.3893 13.5022 10.032 13.7049 9.64799C13.9075 9.26399 14.0942 8.89599 14.2649 8.54399C14.4462 8.19199 14.5955 7.89866 14.7129 7.66399C14.7769 7.67466 14.8675 7.69599 14.9849 7.72799C15.1129 7.75999 15.2249 7.80266 15.3209 7.85599C15.4275 7.90933 15.4809 7.98399 15.4809 8.07999C15.4809 8.12266 15.4275 8.26666 15.3209 8.51199C15.2142 8.74666 15.0862 9.03999 14.9369 9.39199C14.7982 9.73333 14.6755 10.08 14.5689 10.432C14.4622 10.784 14.4089 11.0933 14.4089 11.36C14.4089 11.552 14.4462 11.7067 14.5209 11.824C14.6062 11.9413 14.7449 12 14.9369 12C15.1609 12 15.4329 11.8987 15.7529 11.696C16.0729 11.4933 16.3982 11.2 16.7289 10.816C17.0595 10.4213 17.3529 9.95199 17.6089 9.40799L17.8169 9.55199C17.5929 10.128 17.2995 10.64 16.9369 11.088C16.5742 11.5253 16.1902 11.8667 15.7849 12.112C15.3795 12.3573 14.9849 12.48 14.6009 12.48C14.3235 12.48 14.0995 12.4267 13.9289 12.32C13.7689 12.2133 13.6515 12.0693 13.5769 11.888C13.5129 11.7067 13.4809 11.5093 13.4809 11.296C13.4809 11.168 13.4915 11.04 13.5129 10.912C13.5342 10.7733 13.5609 10.6347 13.5929 10.496C13.4009 10.848 13.1929 11.1787 12.9689 11.488C12.7449 11.7867 12.5102 12.0267 12.2649 12.208C12.0195 12.3893 11.7635 12.48 11.4969 12.48Z" fill="white"/>
<path d="M4.08001 14.992C3.47201 14.992 2.94934 14.864 2.51201 14.608C2.08534 14.352 1.87201 13.9787 1.87201 13.488C1.87201 13.2107 1.94668 12.9653 2.09601 12.752C2.25601 12.5493 2.50134 12.3947 2.83201 12.288C2.78934 12.448 2.75734 12.6027 2.73601 12.752C2.71468 12.9013 2.70401 13.0347 2.70401 13.152C2.70401 13.5893 2.82135 13.936 3.05601 14.192C3.29068 14.4587 3.63734 14.592 4.09601 14.592C4.52268 14.592 4.90134 14.4853 5.23201 14.272C5.57335 14.0587 5.86668 13.776 6.11201 13.424C6.35735 13.0827 6.56535 12.7093 6.73601 12.304C6.90668 11.8987 7.05068 11.4987 7.16801 11.104C7.28535 10.7093 7.37601 10.3627 7.44001 10.064C7.52535 9.70133 7.62135 9.232 7.72801 8.656C7.84535 8.06933 7.97335 7.44533 8.11201 6.784C7.68535 7.59466 7.18935 8.26666 6.62401 8.8C6.06935 9.32266 5.40801 9.584 4.64001 9.584C4.01068 9.584 3.56268 9.408 3.29601 9.056C3.02934 8.69333 2.89601 8.23466 2.89601 7.68C2.89601 7.264 2.94934 6.81066 3.05601 6.32C3.17334 5.82933 3.30134 5.33866 3.44001 4.848C3.57868 4.34666 3.70134 3.86666 3.80801 3.408C3.92534 2.94933 3.98401 2.53866 3.98401 2.176C3.98401 1.83466 3.91468 1.54133 3.77601 1.296C3.64801 1.05066 3.41334 0.927996 3.07201 0.927996C2.77334 0.927996 2.51734 1.024 2.30401 1.216C2.09068 1.39733 1.90934 1.632 1.76001 1.92C1.62134 2.208 1.51468 2.512 1.44001 2.832C1.37601 3.14133 1.34401 3.42933 1.34401 3.696C1.34401 3.84533 1.35468 3.98933 1.37601 4.128C1.39734 4.26666 1.42934 4.384 1.47201 4.48C1.06668 4.48 0.778678 4.37333 0.608011 4.16C0.448011 3.936 0.368011 3.67466 0.368011 3.376C0.368011 3.04533 0.448011 2.70933 0.608011 2.368C0.768011 2.02666 0.986678 1.71733 1.26401 1.44C1.55201 1.152 1.87734 0.922662 2.24001 0.751996C2.61334 0.570662 3.00801 0.479996 3.42401 0.479996C3.82934 0.479996 4.15468 0.565329 4.40001 0.735995C4.64534 0.895996 4.82135 1.09866 4.92801 1.344C5.03468 1.58933 5.08801 1.84 5.08801 2.096C5.08801 2.39466 5.02935 2.768 4.91201 3.216C4.80535 3.65333 4.68268 4.11733 4.54401 4.608C4.40535 5.088 4.28268 5.568 4.17601 6.048C4.06934 6.528 4.01601 6.98133 4.01601 7.408C4.01601 7.86666 4.10135 8.24 4.27201 8.528C4.45334 8.80533 4.74134 8.944 5.13601 8.944C5.50934 8.944 5.86134 8.82666 6.19201 8.592C6.52268 8.35733 6.83201 8.04266 7.12001 7.648C7.40801 7.25333 7.66935 6.82133 7.90401 6.352C8.13868 5.88266 8.34668 5.41866 8.52801 4.96C8.66668 4.384 8.81068 3.82933 8.96001 3.296C9.12001 2.752 9.28001 2.272 9.44001 1.856C9.60001 1.42933 9.76535 1.09333 9.93601 0.847996C10.1067 0.602662 10.2773 0.479996 10.448 0.479996C10.5547 0.479996 10.6933 0.527996 10.864 0.623996C11.0347 0.709329 11.1947 0.831996 11.344 0.991996C11.12 1.344 10.928 1.68 10.768 2C10.608 2.30933 10.4533 2.65066 10.304 3.024C10.1653 3.39733 10.0213 3.84 9.87201 4.352C9.72268 4.85333 9.55201 5.472 9.36001 6.208C9.17868 6.944 8.96001 7.84 8.70401 8.896C8.56535 9.44 8.41601 10 8.25601 10.576C8.09601 11.152 7.89868 11.7013 7.66401 12.224C7.44001 12.7467 7.16801 13.216 6.84801 13.632C6.52801 14.048 6.13868 14.3787 5.68001 14.624C5.23201 14.8693 4.69868 14.992 4.08001 14.992Z" fill="white"/>
</svg>
